<?xml version="1.0" standalone="no"?>
<!DOCTYPE svg PUBLIC "-//W3C//DTD SVG 1.1//EN" "http://www.w3.org/Graphics/SVG/1.1/DTD/svg11.dtd" >
<!--
2013-9-30: Created.
-->
<svg>
<metadata>
Created by iconfont
</metadata>
<defs>

<font id="iconfont" horiz-adv-x="1024" >
  <font-face
    font-family="iconfont"
    font-weight="500"
    font-stretch="normal"
    units-per-em="1024"
    ascent="896"
    descent="-128"
  />
    <missing-glyph />
    
    <glyph glyph-name="xiangyou" unicode="&#58883;" d="M675.028 382.898c-0.624 0.624-382.203-379.999-382.203-379.999-13.79-13.79-13.79-36.147 0-49.936 13.79-13.79 36.147-13.79 49.936 0l382.203 382.203c26.946 26.945 26.965 70.703 0 97.668L342.761 815.037c-13.79 13.79-36.147 13.79-49.936 0-13.79-13.79-13.79-36.147 0-49.936l382.203-382.203z"  horiz-adv-x="1024" />

    
    <glyph glyph-name="jinggao" unicode="&#58884;" d="M554.667 341.333h-85.334v256h85.334z m0-170.666h-85.334V256h85.334zM512 810.667A426.667 426.667 0 1 1 938.667 384 426.667 426.667 0 0 1 512 810.667z"  horiz-adv-x="1024" />

    
    <glyph glyph-name="youxiang" unicode="&#58885;" d="M735.872-72.96H241.28c-112.256 0-203.264 91.008-203.264 203.264V624.896c0 112.256 91.008 203.264 203.264 203.264h494.592c112.256 0 203.264-91.008 203.264-203.264v-494.592c0-112.256-91.008-203.264-203.264-203.264zM538.112 335.232L768 565.12c-5.504 3.328-11.776 4.736-18.304 4.736H227.84c-5.76 0-11.52-1.28-16.64-3.712l230.912-230.912c26.368-26.368 69.376-26.368 96 0zM192.384 549.248c-3.584-6.016-5.504-12.8-5.504-20.096v-302.976c0-8.32 2.56-15.872 6.784-22.144l172.8 171.52-174.08 173.696zM555.648 317.568c-17.408-17.664-40.704-27.392-65.664-27.392-24.832 0-48.256 9.856-65.92 27.392l-39.936 39.936-170.88-169.088c4.48-2.048 9.344-3.072 14.592-3.072h521.856c7.04 0 13.568 1.792 19.328 5.248L597.888 359.808l-42.24-42.24z m230.144 229.888L615.808 377.728l170.496-168.96c2.56 5.248 3.968 11.008 3.968 17.408V529.152c0 6.528-1.408 12.8-4.48 18.304z"  horiz-adv-x="1024" />

    
    <glyph glyph-name="weixiao" unicode="&#58886;" d="M512-128C229.248-128 0 101.248 0 384 0 666.795 229.248 896 512 896s512-229.205 512-512c0-282.752-229.248-512-512-512z m0 938.667C276.352 810.667 85.333 619.648 85.333 384S276.352-42.667 512-42.667 938.667 148.352 938.667 384 747.648 810.667 512 810.667z m0-725.334A298.667 298.667 0 0 0 213.333 384h85.334a213.333 213.333 0 0 1 426.666 0h85.334A298.667 298.667 0 0 0 512 85.333z m213.333 341.334a85.333 85.333 0 1 0 0 170.666 85.333 85.333 0 0 0 0-170.666z m-426.666 0a85.333 85.333 0 1 0 0 170.666 85.333 85.333 0 0 0 0-170.666z"  horiz-adv-x="1024" />

    
    <glyph glyph-name="mima" unicode="&#58887;" d="M845.9 481.5H362.4c-0.1 2.9-0.1 5.7-0.1 8.6 0 68 21.5 131.4 60.5 178.7 36.7 44.5 84.6 69 135 69s98.3-24.5 135-69c15.9-19.3 28.8-41.2 38.6-65 7.7-18.6 26-30.6 46.1-30.6 35.6 0 59.8 36.2 46.2 69.1-13.6 32.9-31.6 63.3-53.8 90.2-26.9 32.6-58.4 58.4-93.8 76.5-37.4 19.2-77.2 28.9-118.4 28.9s-81-9.7-118.4-28.9c-35.3-18.1-66.9-43.9-93.8-76.5-53.7-65.2-83.3-151.2-83.3-242.3 0-2.9 0-5.7 0.1-8.6h-18.6c-34.2 0-62-27.8-62-62v-363.1c0-34.2 27.8-62 62-62h602.2c34.2 0 62 27.8 62 62v363c0 34.3-27.8 62-62 62z m-68-387.1H311.7c-16.6 0-30 13.4-30 30V351.5c0 16.6 13.4 30 30 30h466.2c16.6 0 30-13.4 30-30v-227.1c0-16.6-13.4-30-30-30zM258.1 446.9a54.9 54.9 0 1 1 109.8 0 54.9 54.9 0 1 1-109.8 0zM791.9 53.5a54.9 54.9 0 1 1 109.8 0 54.9 54.9 0 1 1-109.8 0zM187.6 54.5a54.9 54.9 0 1 1 109.8 0 54.9 54.9 0 1 1-109.8 0zM572.2 244.8v41c0 6.6-5.4 12-12 12h-30.8c-6.6 0-12-5.4-12-12v-41c-16.4-9.5-27.5-27.2-27.5-47.6 0-30.3 24.6-54.9 54.9-54.9s54.9 24.6 54.9 54.9c0 20.4-11.1 38.1-27.5 47.6z"  horiz-adv-x="1024" />

    
    <glyph glyph-name="yanzhengma" unicode="&#58888;" d="M512 792.5c1.3 0 2.5-0.2 3.7-0.7L849.6 664c3.8-1.4 6.4-4.8 6.5-8.2l-7.9-272.2v-1.2c0-23.1-3.3-47.5-9.8-72.6-6.4-24.6-15.7-49.4-27.6-73.5-23.7-47.8-56.7-90.6-92.9-120.4-17.7-14.6-134.5-93.2-205.7-140.5-77.5 52.2-190.2 129-202.7 139.6C230.9 184.7 182 287.2 182 382.5c0 0.7 0 1.4-0.1 2.1l-14 271.6c0.2 3.4 2.8 6.6 6.5 8L508.3 792c1.2 0.2 2.5 0.5 3.7 0.5m0 40c-6.1 0-12.2-1.1-18-3.3L160.1 701.3c-18.5-7.1-31.5-24.3-32.2-44.1v-1.9l14-273c0-108.3 54.9-221.2 141-297.5 16.7-14.8 209.2-144.4 209.2-144.4 6-4.1 13-6.1 19.9-6.1 6.9 0 13.8 2 19.8 6 0 0 185.2 123 211.3 144.5C825.4 152.6 888 273.9 888 382.2l8 273v1.9c-0.8 19.8-13.7 37-32.2 44.1L530 829.2c-5.8 2.2-11.9 3.3-18 3.3zM700 530.5H324c-10.2 0-18.5 8.3-18.5 18.5v3.8c0 10.2 8.3 18.5 18.5 18.5h376c10.2 0 18.5-8.3 18.5-18.5v-3.8c0-10.2-8.3-18.5-18.5-18.5zM536 532.8v-322.3c0-9.9-8.1-18.1-18.1-18.1h-8.8c-9.9 0-18.1 8.1-18.1 18.1V532.8c0 9.9 8.1 18.1 18.1 18.1h8.8c10-0.1 18.1-8.2 18.1-18.1z"  horiz-adv-x="1024" />

    
    <glyph glyph-name="guanbi" unicode="&#58889;" d="M892.5-32.9c-7.1 0-14.2 2.7-19.7 8.1L94.5 753.5c-10.9 10.8-10.9 28.5 0 39.3 10.9 10.9 28.4 10.9 39.3 0l778.3-778.3c10.9-10.8 10.9-28.5 0-39.3-5.4-5.4-12.5-8.1-19.6-8.1zM114.2-32.9c-7.1 0-14.2 2.7-19.7 8.1-10.9 10.8-10.9 28.5 0 39.3l778.3 778.3c10.9 10.9 28.4 10.9 39.3 0 10.9-10.8 10.9-28.5 0-39.3L133.8-24.8c-5.4-5.4-12.5-8.1-19.6-8.1z"  horiz-adv-x="1024" />

    
    <glyph glyph-name="wancheng" unicode="&#58891;" d="M63.994 383.95a447.956 447.956 0 1 1 895.912 0 447.956 447.956 0 1 1-895.912 0zM458.955 246.363L289.272 416.047c-11.7 11.699-30.697 11.699-42.396 0s-11.699-30.697 0-42.396l169.683-169.683c11.7-11.7 30.697-11.7 42.396 0 11.799 11.598 11.799 30.597 0 42.395zM777.624 563.732c-11.699 11.7-30.697 11.7-42.396 0l-311.07-311.17c-11.698-11.698-11.698-30.696 0-42.395s30.698-11.699 42.396 0l311.07 311.07c11.799 11.798 11.799 30.797 0 42.495z"  horiz-adv-x="1024" />

    
    <glyph glyph-name="guanliyuan" unicode="&#58892;" d="M876.058 126.976c5.12-34.816 34.826-29.696 39.946-45.056 0-9.718-5.12-45.056-19.968-49.664-14.843 0-34.816 5.12-49.664 0-9.718-5.12-19.958-9.723-25.078-19.963-9.728-25.083 9.718-45.05 0-54.779-14.848-9.728-45.061-25.088-54.784-14.848-14.843 14.848-14.843 34.821-45.056 34.821-39.941 0-39.941-39.94-59.904-39.94s-54.784 14.847-54.784 29.7c5.12 19.963 14.848 34.811-5.12 54.78-25.088 19.967-54.779 0-65.019 9.727-14.843 9.728-19.963 34.816-14.843 49.66s39.936 14.842 39.936 54.788c0 29.691-34.816 34.811-39.936 54.774-5.12 14.848 5.12 39.946 19.963 45.066 25.083 9.718 39.931-9.728 65.02 9.718 14.847 14.838 9.727 49.664 9.727 59.904 5.12 14.843 25.078 19.963 39.936 19.963 29.696 0 19.963-34.821 59.904-39.941 39.936 0 34.816 14.848 54.779 39.94 25.083 0 45.061-9.722 49.659-19.962 9.728-19.968-9.718-49.664 19.968-69.637 25.078-14.843 49.664 5.12 65.024 0 9.723-5.12 14.843-19.963 19.963-39.941-9.723-29.164-54.79-24.044-49.67-69.11z m-179.702 99.84c-119.803-29.696-74.752-204.283 39.936-184.832 115.2 25.098 99.84 209.92-39.936 184.832zM492.068 401.403c-119.808 0-214.528 94.72-214.528 214.528S372.26 830.459 492.068 830.459c119.803 0 214.523-94.72 214.523-214.528 0.005-114.688-94.715-214.528-214.523-214.528z m174.592-49.659s-79.882 0-74.762-54.784c5.12-59.904-74.752-14.838-89.595-65.024-19.968-59.894 9.723-49.654 25.083-89.6 9.728-25.083-39.936-39.936-34.816-84.992 9.728-59.904 59.904-29.706 74.757-65.024 9.723-29.696-25.083-49.664-104.96-49.664-65.02 0-189.44 0-234.496 5.12 0 0-129.536 5.12-129.536 89.6 0 0-5.12 124.928 74.752 214.528 0 0 84.992 109.563 229.38 109.563l264.193-9.723z"  horiz-adv-x="1024" />

    
    <glyph glyph-name="jinggao1" unicode="&#58893;" d="M245.1 346.4a306 306 0 1 1 612 0 306 306 0 1 1-612 0zM512.7 24.8c-49.6 0-97.8 9.7-143.1 28.9-43.8 18.5-83.1 45-116.9 78.8-33.8 33.8-60.3 73.1-78.8 116.9-19.2 45.3-28.9 93.5-28.9 143.1s9.7 97.8 28.9 143.1c18.5 43.8 45 83.1 78.8 116.9 33.8 33.8 73.1 60.3 116.9 78.8 45.3 19.2 93.5 28.9 143.1 28.9s97.8-9.7 143.1-28.9c43.8-18.5 83.1-45 116.9-78.8 33.8-33.8 60.3-73.1 78.8-116.9 19.2-45.3 28.9-93.5 28.9-143.1s-9.7-97.8-28.9-143.1c-18.5-43.8-45-83.1-78.8-116.9-33.8-33.8-73.1-60.3-116.9-78.8-45.3-19.2-93.5-28.9-143.1-28.9z m0 694.5C332.5 719.3 186 572.7 186 392.5s146.6-326.7 326.7-326.7c180.2 0 326.7 146.6 326.7 326.7S692.9 719.3 512.7 719.3zM512.7 266.2c9.6 0 17.2-2.9 22.7-8.7 6.4-6.4 9.6-14.3 9.6-23.6s-3.1-17-9.2-23.1c-6.4-6.4-14.1-9.6-23.1-9.6-9 0-16.7 3.2-23.1 9.6-6.1 5.8-9.2 13.5-9.2 23.1 0 9.3 3.2 17.2 9.6 23.6 6.1 5.8 13.7 8.7 22.7 8.7z m0 317.7c9.6 0 17-2.9 22.2-8.7 5.1-5.8 7.7-13.5 7.7-23.1 0-7.1-8.2-89.3-24.6-246.8h-10.6C491 462.7 482.8 545 482.8 552.1c0 9.6 2.6 17.4 7.7 23.1 5.2 5.8 12.6 8.7 22.2 8.7z"  horiz-adv-x="1024" />

    
    <glyph glyph-name="tianjia" unicode="&#58894;" d="M63.41 384a448 448 0 1 1 896 0 448 448 0 1 1-896 0zM778.08 330.67H564.75v-213.33c0-29.33-24-53.33-53.33-53.33s-53.33 24-53.33 53.33V330.67H244.75c-29.33 0-53.33 24-53.33 53.33s24 53.33 53.33 53.33h213.33V650.67c0 29.33 24 53.33 53.33 53.33s53.33-24 53.33-53.33v-213.33h213.33c29.33 0 53.33-24 53.33-53.33 0.01-29.34-23.99-53.34-53.32-53.34z"  horiz-adv-x="1024" />

    
    <glyph glyph-name="quxiao" unicode="&#58895;" d="M512 723c45.9 0 90.4-9 132.3-26.7 40.5-17.1 76.8-41.6 108.1-72.9 31.2-31.2 55.8-67.6 72.9-108.1C843 473.4 852 428.9 852 383s-9-90.4-26.7-132.3c-17.1-40.5-41.6-76.8-72.9-108.1-31.2-31.2-67.6-55.8-108.1-72.9C602.4 52 557.9 43 512 43s-90.4 9-132.3 26.7c-40.5 17.1-76.8 41.6-108.1 72.9-31.2 31.2-55.8 67.6-72.9 108.1C181 292.6 172 337.1 172 383s9 90.4 26.7 132.3c17.1 40.5 41.6 76.8 72.9 108.1 31.2 31.2 67.6 55.8 108.1 72.9C421.6 714 466.1 723 512 723m0 60c-220.9 0-400-179.1-400-400s179.1-400 400-400 400 179.1 400 400-179.1 400-400 400zM672 413H352c-16.6 0-30-13.4-30-30s13.4-30 30-30h320c16.6 0 30 13.4 30 30s-13.4 30-30 30z"  horiz-adv-x="1024" />

    
    <glyph glyph-name="touxiang" unicode="&#58896;" d="M343.334 455.462h67.334v240c0 22.092-17.908 40-40 40h-27.334c-22.092 0-40-17.908-40-40v-200c0-22.092 17.908-40 40-40zM680.668 735.36h-27.334c-22.09 0-40-17.91-40-40v-34.828c43.288-32.2 71.334-83.742 71.334-141.838v-63.13c20.212 2.006 36 19.056 36 39.798v200c0 22.09-17.91 39.998-40 39.998zM631.526 503.512a57.14 57.14 0 1 1 114.28 0 57.14 57.14 0 1 1-114.28 0zM271.526 503.512a57.14 57.14 0 1 1 114.28 0 57.14 57.14 0 1 1-114.28 0zM824.666-41.974H199.334v83.668c0 104.934 85.066 190 190 190h245.334c104.934 0 190-85.066 190-190v-83.668zM327.334 1.694c0 104.934 85.066 190 190 190h233.954c-32.192 25.064-72.66 40-116.62 40H389.334c-104.934 0-190-85.066-190-190v-83.668h128v43.668zM512 116.694c-47.864 0-86.666 38.802-86.666 86.666V410.026h173.334V203.36c-0.002-47.864-38.804-86.666-86.668-86.666zM650.272 34.078c-19.45 3.116-32.692 21.408-29.578 40.858L647.946 245.1a12 12 0 0 0 13.746 9.952l46.738-7.486a12 12 0 0 0 9.952-13.746L691.13 63.656c-3.116-19.452-21.408-32.694-40.858-29.578z m-275.768 0c19.45 3.116 32.692 21.408 29.578 40.858L376.83 245.1a12 12 0 0 1-13.746 9.952l-46.738-7.486a12 12 0 0 1-9.952-13.746l27.252-170.164c3.114-19.452 21.408-32.694 40.858-29.578zM369.646 63.656l-27.252 170.166a12 12 0 0 0 9.952 13.746l21.706 3.476a11.974 11.974 0 0 1-10.966 4.008l-46.738-7.486a12 12 0 0 1-9.952-13.746l27.252-170.166c3.114-19.45 21.408-32.692 40.858-29.578a35.538 35.538 0 0 1 12.334 4.442c-8.876 5.206-15.442 14.188-17.194 25.138zM736.5-41.974h-449v86.666c0 22.092 17.908 40 40 40h369c22.092 0 40-17.908 40-40v-86.666zM407.5 84.694h-80c-22.092 0-40-17.908-40-40v-86.666h80v86.666c0 22.092 17.908 40 40 40zM485.334 203.36V410.026h-60V203.36c0-47.866 38.802-86.666 86.668-86.666a86.476 86.476 0 0 1 30 5.338c-33.08 12.206-56.668 44.01-56.668 81.328zM512 300.088c-97.57 0-176.666 79.096-176.666 176.666v89.94c0 97.57 79.096 176.666 176.666 176.666s176.666-79.096 176.666-176.666v-89.94c0-97.57-79.096-176.666-176.666-176.666zM397.334 498.996v87.696c0 6.69 0.374 13.292 1.102 19.786 1.126 10.056 9.746 17.6 19.864 17.6h260.83C655.304 693.478 589.482 743.36 512 743.36c-7.584 0-15.052-0.494-22.386-1.42l0.034 0.018c-0.566-0.072-1.12-0.176-1.684-0.252-1.862-0.252-3.72-0.522-5.562-0.834-0.894-0.15-1.78-0.322-2.668-0.486-1.632-0.3-3.258-0.618-4.874-0.962a174.642 174.642 0 0 1-7.494-1.782c-0.912-0.238-1.824-0.474-2.73-0.726-1.614-0.448-3.212-0.928-4.806-1.42-0.812-0.25-1.63-0.49-2.438-0.752-1.91-0.622-3.8-1.282-5.682-1.964-0.464-0.168-0.938-0.32-1.4-0.494a175.272 175.272 0 0 1-6.944-2.76c-0.596-0.252-1.182-0.528-1.776-0.786a177.92 177.92 0 0 1-4.996-2.252c-0.826-0.39-1.638-0.8-2.458-1.204a155.316 155.316 0 0 1-6.786-3.52c-1.31-0.716-2.61-1.45-3.902-2.2-0.866-0.502-1.728-1.006-2.584-1.522a181.683 181.683 0 0 1-3.848-2.4c-0.804-0.514-1.614-1.022-2.41-1.548-1.404-0.928-2.782-1.89-4.156-2.856-0.632-0.446-1.276-0.874-1.902-1.326a176.248 176.248 0 0 1-5.746-4.336c-0.586-0.462-1.152-0.946-1.732-1.416a182.766 182.766 0 0 1-3.908-3.228c-0.766-0.656-1.514-1.334-2.268-2.002-1.07-0.948-2.136-1.9-3.182-2.874-0.792-0.736-1.57-1.486-2.348-2.236a171.388 171.388 0 0 1-7.99-8.226c-0.736-0.808-1.474-1.61-2.194-2.432-0.94-1.072-1.854-2.166-2.77-3.26-0.652-0.78-1.316-1.548-1.956-2.338a181.46 181.46 0 0 1-3.924-5.056c-0.666-0.886-1.304-1.792-1.952-2.69-0.896-1.244-1.792-2.484-2.656-3.75-0.632-0.928-1.238-1.876-1.854-2.818-0.72-1.1-1.438-2.202-2.134-3.32a171.4 171.4 0 0 1-1.832-3.028 174.06 174.06 0 0 1-3.656-6.434 158.144 158.144 0 0 1-1.762-3.368c-0.546-1.064-1.092-2.126-1.616-3.204-0.57-1.17-1.112-2.356-1.656-3.542-0.484-1.054-0.982-2.1-1.446-3.166-0.626-1.436-1.212-2.894-1.8-4.35a177.09 177.09 0 0 1-1.854-4.792c-0.488-1.318-0.99-2.628-1.448-3.96h0.014a176.398 176.398 0 0 1-9.552-57.386v-87.806c0-97.194 77.608-177.786 174.796-178.792 31.246-0.324 60.646 7.468 86.224 21.394a178.437 178.437 0 0 0-23.57-1.4c-97.456 0.654-175.442 81.436-175.442 178.9zM680.668 650.08h-345.28c-38.66 0-70 31.34-70 70v67.894c0 12.15 9.85 22 22 22h307.28c47.496 0 86-38.504 86-86v-73.894zM420.236 690.08c-39.91 0-72.262 31.34-72.262 70V809.974H288.1c-12.544 0-22.71-9.85-22.71-22v-67.894c0-38.66 32.352-70 72.262-70H680.67v40H420.236zM647.326 706.57a12 12 0 0 0-11.982 11.534c-0.638 16.376-5.812 28.938-15.38 37.338-17.386 15.27-44.61 13.272-44.876 13.24a11.972 11.972 0 0 0-13.04 10.864 12.002 12.002 0 0 0 10.864 13.04c1.526 0.14 37.558 3.132 62.884-19.108 14.708-12.914 22.624-31.23 23.528-54.44a11.998 11.998 0 0 0-11.998-12.468zM688.666-31.306a12 12 0 0 0-12 12v68a12 12 0 0 0 24 0v-68a12 12 0 0 0-12-12zM799.348-23.306a12 12 0 0 0-11.956 13.182c10.866 109.858-35.58 135.156-36.05 135.398-5.984 2.846-8.444 9.964-5.598 15.95 2.848 5.982 10.092 8.488 16.076 5.64 2.542-1.208 62.14-31.098 49.456-159.352a12 12 0 0 0-11.928-10.818zM394.666 33.624a30.668 30.668 0 1 1 61.336 0 30.668 30.668 0 1 1-61.336 0zM374.666 750.158a30.668 30.668 0 1 1 61.336 0 30.668 30.668 0 1 1-61.336 0z"  horiz-adv-x="1024" />

    
    <glyph glyph-name="cuowu" unicode="&#58897;" d="M512-85.333C252.8-85.333 42.667 124.8 42.667 384S252.8 853.333 512 853.333 981.333 643.2 981.333 384 771.2-85.333 512-85.333zM556.245 384L716.16 543.915a31.275 31.275 0 1 1-44.245 44.245L512 428.245 352.085 588.16a31.275 31.275 0 1 1-44.245-44.245L467.755 384 307.84 224.085a31.275 31.275 0 1 1 44.245-44.245L512 339.755 671.915 179.84a31.275 31.275 0 1 1 44.245 44.245L556.245 384z"  horiz-adv-x="1024" />

    
    <glyph glyph-name="zhengque" unicode="&#58898;" d="M512 11.636c-50.06 0-98.723 9.891-144.64 29.394a372.922 372.922 0 0 0-118.342 79.988 372.922 372.922 0 0 0-79.965 118.365A367.872 367.872 0 0 0 139.636 384c0 50.06 9.891 98.723 29.394 144.64a372.945 372.945 0 0 0 79.965 118.365A372.945 372.945 0 0 0 367.36 726.97 367.872 367.872 0 0 0 512 756.364c50.06 0 98.723-9.891 144.64-29.394a372.945 372.945 0 0 0 118.365-79.965A372.945 372.945 0 0 0 854.97 528.64 367.872 367.872 0 0 0 884.364 384c0-50.06-9.891-98.723-29.394-144.64a372.922 372.922 0 0 0-79.988-118.342 372.922 372.922 0 0 0-118.365-79.965A367.872 367.872 0 0 0 512 11.636z m0 698.182c-43.776 0-86.342-8.634-126.464-25.693a326.516 326.516 0 0 1-103.633-70.05 326.54 326.54 0 0 1-70.028-103.611A321.63 321.63 0 0 1 186.182 384c0-43.776 8.634-86.342 25.693-126.464a326.516 326.516 0 0 1 70.05-103.633 326.516 326.516 0 0 1 103.611-70.028A321.63 321.63 0 0 1 512 58.182c43.776 0 86.342 8.657 126.464 25.693a326.516 326.516 0 0 1 103.633 70.05 326.516 326.516 0 0 1 70.028 103.611A321.63 321.63 0 0 1 837.818 384c0 43.776-8.634 86.342-25.693 126.464a326.516 326.516 0 0 1-70.05 103.633 326.516 326.516 0 0 1-103.611 70.028A321.652 321.652 0 0 1 512 709.818zM468.317 254.65a18.618 18.618 0 0 0-12.66 4.957L323.537 381.65a18.665 18.665 0 0 0 25.321 27.416l118.947-109.848 211.27 211.247a18.665 18.665 0 0 0 26.391-26.391l-223.93-223.954a18.618 18.618 0 0 0-13.219-5.469z"  horiz-adv-x="1024" />

    
    <glyph glyph-name="shuaxin" unicode="&#58899;" d="M959.362 450.833c-14.326 96.4-58.427 183.883-127.537 252.992S675.233 817.037 578.833 831.361a454.03 454.03 0 0 1-139.622-0.928c-46.872-7.606-91.967-22.43-134.036-44.066-10.051-5.17-14.01-17.509-8.84-27.56 5.17-10.052 17.508-14.01 27.56-8.841 159.537 82.049 352.026 51.874 478.986-75.085 97.435-97.435 137.858-233.466 114.305-363.579-19.11 32.768-43.977 56.614-86.173 88.125-8.605 6.427-29.94 15.566-33.28-5.266-1.428-8.913 37.865-56.437 55.594-105.64 20.942-58.126 14.232-73.697 22.734-105.74 0.211-1.133 0.52-2.242 0.919-3.321 5.59-19.383 25.494-16.814 32.499-8.476l0.038 0.048a20.385 20.385 0 0 1 4.851 6.143c21.636 42.068 36.46 87.164 44.066 134.036a454.062 454.062 0 0 1 0.928 139.622zM700.103 18.032c-159.536-82.048-352.026-51.874-478.985 75.085C123.726 190.509 83.295 326.462 106.78 456.52c19.36-34.474 44.457-58.846 88.044-91.396 8.605-6.426 29.94-15.565 33.28 5.266 1.428 8.913-37.865 56.437-55.594 105.641-21.653 60.098-13.744 74.702-23.653 109.06-1.34 4.647-3.507 8.02-6.116 10.366a20.386 20.386 0 0 1-5.548 4.207c-10.051 5.17-22.391 1.211-27.56-8.84-21.635-42.067-36.461-87.163-44.066-134.035a453.992 453.992 0 0 1-0.927-139.621c14.325-96.4 58.426-183.884 127.536-252.993 69.109-69.11 156.592-113.21 252.993-127.536a453.992 453.992 0 0 1 139.62 0.928c46.873 7.606 91.97 22.431 134.037 44.066 10.051 5.169 14.01 17.509 8.84 27.56-5.17 10.056-17.512 14.009-27.563 8.839z"  horiz-adv-x="1024" />

    
    <glyph glyph-name="sou" unicode="&#58900;" d="M986.476-63.237L719.288 199.936c70.313 72.32 112.502 170.757 112.502 277.233 0 220.984-180.802 401.787-401.787 401.787S28.216 698.153 28.216 477.169 209.02 75.382 430.003 75.382c94.418 0 180.803 32.143 249.109 86.384l269.199-265.18c10.045-10.045 28.124-10.045 40.177 0 10.04 12.048 10.04 30.131-2.012 40.177zM88.484 479.176c0 188.84 152.678 341.519 341.52 341.519s341.519-152.678 341.519-341.52-152.679-341.519-341.52-341.519c-188.84-0.005-341.52 152.679-341.52 341.52z"  horiz-adv-x="1024" />

    
    <glyph glyph-name="wodefabu" unicode="&#58901;" d="M578.56 257.178L464.333 371.405l263.885 263.859C669.542 686.08 593.92 716.8 510.822 716.8 327.68 716.8 179.2 568.32 179.2 385.178c0-183.143 148.48-331.623 331.622-331.623 183.143 0 331.623 148.48 331.623 331.623 0 40.576-7.501 79.155-20.89 114.995L578.56 257.178zM400.947 194.56l42.522 156.365 114.227-114.227-156.749-42.138z"  horiz-adv-x="1024" />

    
    <glyph glyph-name="goutong" unicode="&#58902;" d="M412.96063855 48.06541587000004a31.33145344 31.33145344 0 0 1 31.60981633-0.13918148l98.58327637 54.5523597c12.70014237-2.54871882 27.99517101-3.75450585 44.91149458-3.7545061 194.20096837 0 352.06402289 142.05882514 352.06402285 316.42201647C940.12924857 589.55614212 782.26687319 731.61428832 588.06590485 731.61428832 393.86561536 731.61428832 235.95571447 589.55614212 235.95571447 415.14610446c0-106.97286575 60.53105378-207.03893436 162.82198943-268.45056565l0.5567261-3.24462634-1.85349028-67.80786992a31.37829984 31.37829984 0 0 1 15.47969883-27.57762668z m98.90780683 121.71116848l-41.34233768-23.86928815 0.37069817 20.43999179a40.46243898 40.46243898 0 0 1-22.24731442 36.89328205c-86.95041855 43.7063863-140.85371701 124.95579479-140.85371705 211.90553442 0 134.73516242 125.60485582 244.62812394 280.27013035 244.62812395 154.61842801 0 280.22328377-109.89228267 280.22328383-244.62812395 0-134.68899482-125.60485582-244.58127748-280.22328383-244.58127762a318.87840014 318.87840014 0 0 0-49.63959198 4.12520407 40.64778798 40.64778798 0 0 1-26.55786739-4.91344656z m384.69359839-0.88057757l-0.13918152-5.56182859-2.64173278-4.03218993-1.5296387-0.74139612-4.82043253 0.46371197-15.2950286 11.67970431a29.94099631 29.94099631 0 0 1-36.24422107-47.69308767l70.72796592-53.71727046a29.89482879 29.89482879 0 0 1 48.06310682 23.31256212l5.74717756 62.38522288c64.4240622 35.87420187 100.52978067 105.07184993 100.52978054 193.27354428a225.16172377 225.16172377 0 0 1-43.05800417 131.44504746l-3.24394743 1.85349026a676.68892164 676.68892164 0 0 1-24.14765118-18.4004735l-0.92674507-0.69522857c-12.23575141-9.64018617-15.61955923-12.28191888-20.3001313-14.0899206l-1.85416919-3.38312893a158.04908241 158.04908241 0 0 0 33.64865574-96.72978612c0-73.22983809-29.33878172-125.41950687-87.46029805-152.99645434a29.94099631 29.94099631 0 0 1-17.05550499-26.37251841zM521.83384098 473.22077436a54.13481502 54.13481502 0 1 0 0-108.31647658 54.13481502 54.13481502 0 0 0 0 108.31715555z m235.17260779 0a54.13481502 54.13481502 0 1 0 0-108.26962999 54.13481502 54.13481502 0 0 0 0 108.26962999z"  horiz-adv-x="1228" />

    
    <glyph glyph-name="huidaodingbu" unicode="&#58903;" d="M514.3730469 744.7031249300001c-200.6542969 0-363.25195313-162.68554689-363.25195315-363.25195315s162.68554689-363.25195313 363.25195315-363.25195303c200.56640627-0.08789063 363.25195313 162.59765622 363.25195307 363.16406247S714.93945312 744.7031249300001 514.3730469 744.7031249300001zM400.81835931 552.31054687h216.38671892c10.19531258 0 18.54492188-8.08593762 18.54492177-18.1054688 0-10.01953126-8.26171871-18.10546869-18.54492191-18.1054687H400.81835931c-10.19531258 0-18.54492188 8.08593762-18.54492199 18.1054687 0 10.01953126 8.26171871 18.10546869 18.54492211 18.1054688z m235.01953137-215.41992177c-8.96484373-8.70117196-23.46679696-8.70117196-32.34375016 0l-75.93749993 74.00390609v-193.09570305c0-10.01953126-8.26171871-18.10546869-18.54492187-18.10546871-10.19531258 0-18.54492188 8.08593762-18.54492186 18.10546871V410.98242188l-75.9375-74.00390626c-8.96484373-8.70117196-23.46679696-8.70117196-32.34374999 0-8.96484373 8.70117196-8.96484373 22.85156253 0 31.55273439L492.75195312 476.28515614s0 0.08789063 0.08789061 0.08789083c4.48242195 4.3945312 10.37109377 6.50390624 16.17187503 6.50390613 5.88867187 0 11.68945313-2.19726564 16.17187503-6.50390626 0 0 0-0.08789063 0.08789058-0.08789053l110.56640631-107.84179696c8.96484373-8.70117196 8.96484373-22.76367193-7e-8-31.55273439z"  horiz-adv-x="1024" />

    
    <glyph glyph-name="jubao" unicode="&#58904;" d="M512 650.63080989a266.63080989 266.63080989 0 1 1 0-533.26161978c147.26527417 0 266.63080989 119.36553578 266.63080989 266.63080989S659.26527417 650.63080989 512 650.63080989zM186.1116047 384C186.1116047 563.96295531 332.03704469 709.8883953 512 709.8883953s325.8883953-145.92544001 325.8883953-325.8883953-145.92544001-325.8883953-325.8883953-325.8883953S186.1116047 204.03704469000002 186.1116047 384zM545.49394358 472.46087741c7.15172265-6.4458433 10.73649505-16.07800954 9.55960511-25.72736129l-23.75420875-193.32437954 16.91055247 4.30911033a28.60561771 28.60561771 0 0 0 28.00794357-8.00208774c7.24210579-7.60427473 9.95805459-18.55781655 7.06133945-28.73291795a29.20265555 29.20265555 0 0 0-21.00197942-20.49468822l-57.93557332-14.7553609a28.58779561 28.58779561 0 0 0-26.21619376 6.51776776 29.80096625 29.80096625 0 0 0-9.5411467 25.7630053l23.71729195 193.30655749-16.90991604-4.30911022a28.93150613 28.93150613 0 0 0-34.94198291 21.50863404c-3.85719467 15.715204 5.44908318 31.68373543 20.85685729 35.73951849l57.93557327 14.73690226a28.58779561 28.58779561 0 0 0 26.25183779-6.53558981zM468.36787207 553.64273182c0 16.29441985 12.96297475 29.51135829 28.96778666 29.51135816h28.94996459c16.00481188 0 28.96715012-13.2169384 28.96715016-29.51135821s-12.96233825-29.51072178-28.96715016-29.51072184h-28.96778666c-7.6761993 0-15.04560528 3.1137618-20.47686628 8.65386457-5.43126121 5.54010271-8.4909203 13.03553581-8.49092032 20.85685727z"  horiz-adv-x="1024" />

    
    <glyph glyph-name="shoucang1" unicode="&#58906;" d="M776.21333331 161.70666666H630.40000003l169.06666662 162.13333334c76.16000002 76.16000002 76.16000002 200.00000013 0 276.16000002-76.16000002 76.16000002-200.00000013 76.16000002-276.16 0-5.12000002-5.12000002-10.02666662-10.56000002-14.50666667-16.32000001-2.56000005 2.88000003-5.12000002 5.5466667-7.78666663 8.32-2.66666669 2.66666669-5.43999998 5.12000002-8.10666672 7.46666666l-1.59999989 1.38666664c-77.01333332 67.41333334-194.02666668 63.57333326-266.45333343-8.85333337-72.32000003-72.32000003-76.26666662-189.33333329-8.8533333-266.34666662l1.17333333-1.38666664c2.45333334-2.88000003 4.90666669-5.65333334 8.10666669-8.85333323l159.36-152.53333346H239.04000001c-14.72 0-26.66666667-11.94666666-26.66666672-26.66666671s11.94666666-26.66666667 26.66666672-26.66666665h212.58666666c0.21333323 0 0.32000001 0 0.53333332 0.10666674 3.41333335 0.10666668 6.61333328 0.85333331 9.59999999 2.13333329 0 0 0.10666668 0 0.10666667 0.10666673 3.20000002 1.38666666 6.07999997 3.41333335 8.42666669 5.86666665 0 0 0.10666668 0.10666668 0.21333332 0.10666667 0.10666668 0.10666668 0.10666668 0.21333323 0.21333335 0.42666667 2.23999988 2.45333334 4.05333333 5.22666663 5.22666667 8.32 0.10666668 0.32000001 0.21333323 0.53333335 0.31999993 0.85333343 0.96000002 2.77333333 1.60000001 5.76000001 1.60000002 8.85333322v0.42666666c0 0.21333323-0.10666668 0.42666669-0.10666667 0.63999982-0.10666668 3.3066667-0.85333331 6.50666669-2.02666662 9.49333347 0 0.10666668-0.10666668 0.10666668-0.10666669 0.21333342-1.38666666 3.20000002-3.41333335 5.97333335-5.86666652 8.31999988 0 0-0.10666668 0.10666668-0.10666685 0.21333345l-206.93333326 197.97333329c-1.81333332 1.81333332-3.41333335 3.73333326-5.12000001 5.65333326l-1.27999999 1.49333338c-48.96000016 55.99999999-46.18666661 140.90666669 6.39999995 193.49333331 52.58666661 52.58666661 137.49333338 55.35999999 193.49333337 6.40000006l1.70666665-1.49333342c1.81333332-1.60000001 3.73333326-3.20000002 5.43999995-4.90666664 9.0666667-9.0666667 16.95999999-19.62666665 23.46666673-31.25333328 4.80000002-8.74666668 13.33333332-14.40000003 24.00000003-13.65333328 9.92000005 0.21333323 18.88000001 5.97333335 23.25333331 14.93333321 7.03999997 14.2933334 16.10666666 27.09333332 26.98666677 38.08000003 26.77333337 26.77333337 62.40000001 41.59999998 100.26666655 41.60000006s73.49333341-14.72 100.2666667-41.60000006c55.2533333-55.2533333 55.2533333-145.28000007 0.42666666-200.21333326l-216.53333335-207.89333337s-0.10666668-0.10666668-0.10666668-0.21333336c-2.45333334-2.34666667-4.48000001-5.22666663-5.86666664-8.42666664 0-0.10666668-0.10666668-0.10666668-0.10666671-0.21333334-1.28-2.88000003-1.92000007-6.18666669-2.02666664-9.49333335 0-0.21333323-0.10666668-0.42666669-0.10666671-0.64000005v-0.42666659c0-3.09333339 0.63999999-6.07999997 1.60000004-8.96 0.10666668-0.32000001 0.10666668-0.53333335 0.32000002-0.85333324 1.28-3.09333339 3.09333339-5.86666665 5.33333332-8.32000011 0.10666668-0.10666668 0.10666668-0.21333323 0.21333332-0.32000003l0.21333328-0.21333328c0.85333331-0.85333331 1.81333332-1.60000001 2.77333345-2.34666669 0.42666669-0.32000001 0.85333331-0.74666668 1.27999999-1.06666671 1.38666666-0.96000002 2.98666671-1.81333332 4.5866666-2.45333329 0.74666668-0.32000001 1.60000001-0.53333335 2.45333333-0.74666671 0.85333331-0.32000001 1.70666668-0.63999999 2.56000003-0.7466666 1.70666668-0.32000001 3.51999997-0.53333335 5.33333327-0.53333335h212.15999993c14.72 0 26.66666667 11.94666666 26.66666669 26.66666663s-11.84000003 26.77333337-26.55999984 26.77333337z"  horiz-adv-x="1024" />

    
    <glyph glyph-name="wodefabu1" unicode="&#58907;" d="M808.37825957 516.72917749c-6.94765093 0-12.74585723-5.79743387-12.74585712-12.74585727v-158.02391046c0-6.94765093 5.79820628-12.74585723 12.74585712-12.74585737s12.74585723 5.79820628 12.74585738 12.74585731V503.98332022c0 6.94842346-5.79820628 12.74585723-12.74585738 12.74585727zM486.50828555 89.28951648999998H242.49232483c-8.71198653 0-14.74502563 5.78352926-14.74502574 11.97338105V606.60832785c0 5.39960861 4.35908315 12.59290685 13.32135212 12.59290697h302.18959806c6.94765093 0 12.74585723 5.79743387 12.74585731 12.7458573s-5.79820628 12.74585723-12.74585731 12.7458572h-302.26993562c-22.52926822 0-38.73272897-8.99548528-38.73272894-37.86292081v-505.11909481c0-24.77253916 15.03393177-37.91390419 42.08759311-37.91390422H486.50828555c6.94842346 0 12.74585723 5.79820628 12.74585722 12.74585717s-5.79743387 12.74662975-12.74585722 12.74662977zM403.22067449 322.12465665c1.40667914-8.37364197 6.75066948-15.45647628 12.83932686-21.04688639 4.44869037-4.08485411 8.76219748-8.436985 13.63883967-12.01818468 14.68400001-10.78376769 36.54507636-8.34042549 48.8042737 5.00950811 1.22514724 1.33561136 327.61333466 356.76504133 330.24361607 359.6293831 14.08301354 15.33674251 14.50864793 38.87872695-0.86517332 53.62915996l-10.53503039 9.67294697c-7.39645955 6.79238316-16.00107183 10.6115055-26.08729351 11.01473802-10.77449802 0.43104175-21.32188796-4.77622031-28.49201213-12.58363728l-15.34601211-16.71175007-314.22168727-342.1806907c-8.9112854-9.70152854-12.14796067-21.49955751-9.97884757-34.41458704z m360.64364439 378.22829246c3.92186167 3.74187465 11.24879835 2.4665165 14.75893011-0.7353972s9.35082438-8.47329146 12.77521144-11.89536105 3.84152412-11.0773087-0.09501451-15.36300654l-21.77378663-23.71038443-28.63878247 27.08765033c6.67110442 7.26359355 19.05158039 20.87462428 22.97344206 24.61649889zM430.5756016 337.72867578l293.07283406 319.22965055 28.63878237-27.08765027c-23.92127035-26.05021477-286.66668886-311.97300914-291.86545362-317.835331s-10.50490382-6.90979959-15.18147469-2.7554226-11.64353372 10.41297903-15.44257164 14.02507797-3.4467888 9.82280739 0.77788352 14.42367543z m-45.01296049-31.75881381c-5.80902099 3.40275764-14.18266306 1.55653953-17.4386501-4.57228662l-55.92032433-105.24370191c-2.70366658-5.08907318-2.17992782-11.27351761 1.99298855-15.44566157 3.89945988-3.89945988 10.67948346-5.10529517 15.44566158-1.99298856l98.48608009 64.31327819c5.80515865 3.7905407 8.21528441 11.21944427 4.57228678 17.43865011-3.37881091 5.76807965-11.61495209 8.37518692-17.4386502 4.57228666l-57.59196282-37.60877607 32.46485704 61.10054969c3.26062203 6.13577841 1.5974808 13.82500654-4.57228659 17.43865012zM838.05447767 166.28762617999996c-6.94765093 0-12.74585723-5.79820628-12.74585717-12.74585702 0-19.02299879 0.11587146-70.70165633-0.02162937-77.51257912-0.07106782-3.51322173 1.20660774-12.42836956-13.54691509-12.42836951H593.0064888c-14.89256859 0-13.80105973 13.40555191-13.80105971 19.16899679V229.92498782999996c0 8.33965297 4.47572704 13.55772976 13.52219581 13.55772973h73.84022712c6.94765093 0 12.74585723 5.79820628 12.74585727 12.74585719s-5.80515865 12.57668498-12.75280952 12.57668495c-19.12651059 0-54.23246385-0.04789351-78.14369203-0.04789348S553.71371469 251.88030622999997 553.71371469 229.46304702999998V80.54817575000004c0-35.27358053 18.20803642-42.43829727 43.1126689-42.4382973h214.68194965c35.01248359 0 39.29200174 16.36954305 39.29200171 40.09151471v75.34037582c0 6.94765093-5.79820628 12.74585723-12.74585728 12.7458573zM863.05566978 245.38146396000002c-0.37465098 2.35064508-1.48238183 4.62713247-3.48155016 6.62630086-0.63265797 0.63265797-1.36573789 1.18652345-2.15675357 1.67086602-0.14136314 0.10737413-0.27731892 0.21783831-0.42254447 0.3221226l-53.44531052 38.5272502c-5.64834594 4.07172203-14.18034555 0.99031449-17.43865024-4.57228662-3.76504905-6.42777442-1.05134004-13.38469507 4.57228666-17.43865005l22.16543193-15.9794426 0.56390763-1.22746468c-73.5621357-3.16946982-135.42280198-51.22521406-158.59554292-117.33140947 0 0-3.54643822-10.50799363 8.43235019-14.78596686 11.78026195-4.20690535 15.25099749 6.4509487 15.25099759 6.45094868 20.53318962 58.71746064 76.64663313 100.85989955 142.66090385 100.85989962 0.53687091 0 1.06987958-0.01622209 1.60520555-0.02085691l-23.84865765-29.87319948c-4.33050157-5.42355539-5.32004356-12.70491595 0-18.02495953 4.49967383-4.50044633 13.68364335-5.43823239 18.0249596 0l42.6306439 53.39741699c0.04403109 0.05407333 0.08110998 0.11200905 0.12359615 0.16685494 1.48006449 1.54649735 2.59783739 3.43442921 3.15402034 5.45677185 0.56159011 2.03624724 0.58785439 3.97130013 0.20470614 5.77580444z"  horiz-adv-x="1024" />

    
    <glyph glyph-name="zuji" unicode="&#58908;" d="M508.62170419 534.8697509799999c6.17980957 0 12.7716064-0.90637209 19.52819816-2.80151371 35.84289549-9.72290041 64.35241697-32.38220218 81.90307618-49.60327146 21.91772462-21.5057374 37.24365236-44.494629 44.32983395-58.74938974 12.35961918-25.21362307 17.22106934-49.10888665 14.66674807-73.16894522-2.63671877-24.88403321-12.93640135-50.75683602-31.5582275-79.26635734l-0.90637208-1.40075693c-25.62561034-38.72680666-59.98535169-67.40112304-90.30761725-90.39001466-50.59204101-38.3972168-80.9143066-59.16137699-137.76855466-88.24768063l-0.08239745-0.08239747-0.08239744-0.08239747c-1.07116699-0.57678223-2.30712894-1.23596192-5.10864264-2.80151366-11.20605468-6.3446045-37.40844729-21.17614745-68.80187981-28.2623291-11.53564454-2.63671877-22.5769043-3.95507814-32.87658695-3.95507815-12.35961918 0-24.14245604 1.89514173-34.85412593 5.68542493-8.9813232 3.13110352-17.55065921 7.66296391-25.54321294 13.5131835-8.9813232 6.59179687-15.16113279 20.02258303-16.89147949 36.99645996-2.47192386 24.30725101 5.2734375 47.04895021 14.17236328 56.77185062 28.83911134 31.64062499 50.67443845 41.52832031 71.76818845 51.08642574 11.12365726 5.02624513 21.58813476 9.72290041 32.62939462 17.05627442 25.79040527 17.13867188 57.18383789 53.5583496 69.21386721 96.32263186 4.7790527 17.13867188 5.60302738 37.16125486 6.34460442 58.33740216v0.08239762c0.74157716 19.85778807 1.48315436 40.45715325 5.68542475 59.73815918 4.119873 19.19860834 11.12365726 34.11254882 21.42333989 45.56579591 10.38208012 11.61804201 22.90649407 24.38964844 36.91406249 31.39343266 8.48693846 4.20227058 16.9738769 6.26220694 26.20239267 6.26220698m0 41.19873051c-15.65551755 0-30.56945803-3.54309091-44.57702645-10.62927246-20.10498041-10.13488767-36.09008788-26.28479001-49.02648926-40.70434577-34.11254882-38.06762695-36.00769039-89.73083498-37.57324227-131.25915521-0.74157716-18.70422364-1.40075683-36.33728027-4.86145014-48.77929695-8.73413088-30.98144531-32.95898444-60.31494139-52.32238768-73.16894529-8.2397461-5.43823239-16.80908203-9.39331056-26.77917477-13.84277345-22.5769043-10.21728518-50.75683602-22.90649407-85.28137215-60.89172361-18.45703131-20.26977541-28.09753417-55.04150389-24.71923822-88.74206544 2.96630858-29.00390622 14.83154297-52.40478516 33.61816412-66.08276367 11.28845214-8.2397461 23.40087891-14.66674804 36.17248532-19.11621093 15.16113279-5.35583491 31.39343262-7.99255372 48.44970697-7.99255368 13.43078614 0 27.43835457 1.64794921 41.94030764 4.94384759 37.32604981 8.404541 67.23632817 25.3784179 80.00793456 32.54699704 1.56555177 0.90637209 3.13110352 1.73034659 3.7902833 2.05993657 59.326172 30.40466302 92.28515617 52.98156743 143.86596667 92.12036135 33.04138186 25.04882815 70.69702149 56.60705551 99.7009277 100.44250487 45.48339843 68.7194824 51.99279785 130.68237305 20.4345704 194.7875977-17.38586426 35.34851075-71.68579103 108.02307138-152.43530274 129.94079586-10.38208012 2.96630858-20.51696778 4.36706544-30.404663 4.36706548zM480.19458006 711.94189456c0.82397462 0 1.73034659-0.08239747 2.55432131-0.24719245 4.36706544-0.82397462 7.91015625-3.70788576 10.71166982-8.56933585 4.61425783-8.07495115 5.52062988-16.80908203 2.88391109-26.77917472-3.04870599-9.55810554-7.0037842-13.84277344-10.13488755-16.47949232l-0.08239747-0.08239741c-2.30712894-1.89514173-5.85021974-4.119873-10.21728514-4.11987312-0.57678223 0-1.15356446 0-1.73034682 0.08239748-0.9887695 0.08239747-1.89514173 0.32958986-2.71911615 0.65917959-2.96630858 1.07116699-5.68542481 3.21350096-7.82775873 6.34460466-4.36706544 6.17980957-6.17980957 15.07873538-4.86145019 23.89526357 1.31835938 8.81652836 5.60302738 16.80908203 11.5356444 21.42333988 3.21350096 2.55432139 6.59179687 3.87268066 9.88769543 3.87268069m0 41.19873046c-12.35961918 0-24.63684079-4.28466795-35.18371584-12.44201665-14.3371582-11.12365726-24.22485358-28.59191898-27.10876464-47.95532224s1.56555177-38.97399903 12.03002925-53.80554201c7.16857911-10.13488767 16.80908203-17.46826171 27.85034186-21.3409424 3.62548828-1.23596192 7.41577148-2.14233398 11.20605468-2.63671871 2.30712894-0.32958986 4.61425783-0.41198732 6.83898933-0.41198731 13.26599122 0 26.11999515 4.86145025 36.9140623 13.92517081 10.71166991 9.06372071 18.29223634 20.84655743 22.98889167 36.00769044l0.16479501 0.5767823c5.68542481 20.68176272 3.29589852 40.86914063-6.75659183 58.50219727-8.65173339 15.16113279-22.32971188 25.29602051-38.39721679 28.50952152-3.46069337 0.74157716-7.0037842 1.07116699-10.546875 1.07116698z m131.2591553-81.90307619c1.56555177 0 3.13110352-0.24719239 4.61425782-0.74157722 6.17980957-1.89514173 9.55810554-6.83898929 11.20605466-10.7116698 3.62548828-8.15734871 3.70788576-16.9738769 0.24719232-26.20239263-2.96630858-6.83898929-6.59179687-11.61804201-11.53564432-14.99633789l-0.08239754-0.08239749c-3.37829581-2.30712894-7.0037842-3.46069337-10.54687515-3.4606933-1.23596192 0-2.38952629 0.16479485-3.62548821 0.41198723-1.15356446 0.24719239-2.22473147 0.65917967-3.2135009 1.071167-3.29589852 1.56555177-6.0974121 4.28466795-8.15734871 7.91015625-3.70788576 6.50939942-4.69665525 15.49072263-2.5543213 23.81286625 2.14233398 8.32214357 7.16857911 15.73791505 13.51318363 19.69299315 3.37829581 2.22473147 6.83898929 3.29589852 10.1348877 3.29589845m0 28.83911134c-8.73413088 0-17.46826171-2.55432139-25.4608155-7.58056641-12.68920889-7.91015625-22.24731446-21.5057374-26.20239252-37.07885734-3.95507814-15.65551755-1.97753911-32.05261231 5.43823243-45.15380869 5.10864253-8.89892577 12.35961918-15.73791505 21.01135254-19.7753906 2.88391102-1.31835938 5.93261721-2.38952629 8.98132322-3.13110354 3.37829581-0.74157716 6.75659181-1.15356446 10.05249022-1.15356445 9.39331056 0 18.70422364 2.96630858 26.94396977 8.65173339 9.55810554 6.59179687 16.72668457 15.57312012 21.83532715 27.68554687l0.16479491 0.49438478c6.3446045 16.47949217 6.0974121 33.28857422-0.74157715 48.53210447-5.85021974 13.18359379-16.23229984 22.5769043-29.16870118 26.53198244-4.03747556 1.31835938-8.404541 1.97753911-12.85400389 1.97753908z m100.85449219-105.30395504c3.95507814 0 7.25097653-1.23596192 9.80529783-3.54309088 3.79028322-3.46069337 4.53186034-8.15734871 4.53186037-11.5356445 0-3.13110352-0.57678223-8.15734871-5.43823242-15.40832512l-0.08239758-0.16479503c-5.10864253-6.9213867-11.37084961-10.54687499-19.03381334-11.12365725-0.49438466 0-0.9887695-0.08239747-1.4007569-0.0823974-1.81274414 0-3.46069337 0.24719239-5.02624506 0.8239746-5.10864253 1.81274414-8.404541 6.3446045-8.98132323 12.35961915-1.15356446 12.93640135 10.7940675 27.35595697 23.81286621 28.59191896 0.57678223 0.08239747 1.23596192 0.08239747 1.81274412 0.08239747m0 24.71923819c-1.31835938 0-2.71911619-0.08239747-4.03747565-0.16479483-26.53198238-2.38952629-48.53210451-28.83911134-46.14257812-55.37109382 1.48315436-16.14990235 11.53564454-28.59191898 25.37841799-33.45336913 4.119873-1.48315436 8.56933598-2.22473147 13.18359374-2.22473147 1.07116699 0 2.22473147 0.08239747 3.37829598 0.16479491 14.91394043 1.15356446 27.76794432 8.56933598 37.16125483 21.42333991l0.41198722 0.5767822c6.50939942 9.64050293 9.72290041 19.28100589 9.72290047 29.25109866 0.08239747 11.78283692-4.36706544 22.32971188-12.52441406 29.82788083-7.16857911 6.42700195-16.47949217 9.97009279-26.5319824 9.97009274z m62.70446779-116.59240716h0.98876949c2.96630858-0.16479485 7.0037842-1.07116699 9.88769533-4.61425785s2.96630858-7.82775879 2.4719238-10.79406737c-0.41198732-2.8015137-1.64794921-7.25097653-6.92138684-13.10119629l-0.08239724-0.08239733c-5.10864253-5.10864253-10.62927247-7.58056652-16.97387706-7.58056653-0.57678223 0-1.15356446 0-1.73034665 0.08239747-1.40075683 0.08239747-2.71911619 0.32958986-3.9550782 0.82397448-5.35583491 1.89514173-8.32214357 6.67419437-7.99255371 12.85400397 0.32958986 5.60302738 3.46069337 11.61804201 8.40454109 16.06750494 4.69665525 3.95507814 10.54687499 6.3446045 15.90270999 6.34460451m0 24.71923826c-11.45324715 0-23.15368653-4.61425783-32.38220215-12.85400391-9.8876953-8.81652836-15.90271001-20.84655743-16.56188967-33.04138182-0.9887695-17.46826171 9.06372071-32.21740732 24.47204593-37.57324223 3.29589852-1.15356446 6.75659181-1.89514173 10.46447739-2.14233401 1.15356446-0.08239747 2.22473147-0.08239747 3.37829598-0.0823974 13.01879886 0 24.96643066 5.19104007 34.68933112 15.0787354l0.49438471 0.49438474c7.49816895 8.15734871 11.78283692 16.80908203 13.26599124 26.20239254 1.73034659 11.12365726-0.9887695 21.83532703-7.74536132 30.15747074-6.67419437 8.2397461-16.47949217 13.10119633-27.68554683 13.76037595h-2.38952663z m37.49084476-122.85461421c0.24719239-0.08239747 0.41198732-0.16479485 0.65917961-0.32958987 2.8015137-1.40075683 4.53186034-3.37829581 5.19103999-5.85021973 0.82397462-3.13110352-0.41198732-6.0150147-1.56555172-7.8277588s-3.37829581-4.61425783-9.06372067-7.08618167h-0.08239748c-5.2734375-2.05993654-9.97009279-2.05993654-14.4195557-0.08239746-0.41198732 0.16479485-0.82397462 0.32958986-1.1535645 0.57678236-0.90637209 0.49438466-1.73034659 1.07116699-2.38952628 1.6479491-2.88391102 2.71911619-3.37829581 6.75659181-1.40075685 10.62927246 1.97753911 3.87268066 6.0974121 7.08618161 11.04125978 8.65173337 4.4494629 1.48315436 9.310913 1.40075683 13.18359382-0.32958984m9.22851563 20.76416018c-8.89892577 3.95507814-19.52819821 4.36706544-29.49829108 1.15356443-10.62927247-3.46069337-19.52819821-10.71166991-24.22485354-19.94018554-6.75659181-13.26599122-4.03747556-28.09753417 6.01501468-37.57324217 2.14233398-1.97753911 4.61425783-3.79028322 7.33337409-5.27343756 0.82397462-0.41198732 1.73034659-0.82397462 2.55432121-1.2359619 10.05249023-4.4494629 21.09375011-4.53186034 32.13500972-0.24719236l0.57678228 0.24719236c8.65173339 3.79028322 14.91394043 8.89892577 19.28100593 15.73791505 5.19104007 8.07495115 6.75659181 17.30346685 4.3670653 26.03759772-2.30712894 8.65173339-8.2397461 15.8203125-16.72668446 20.18737786-0.65917967 0.41198732-1.23596192 0.65917967-1.81274413 0.90637211z"  horiz-adv-x="1024" />

    
    <glyph glyph-name="zhiwei" unicode="&#58909;" d="M458.5278125 653.99999999h106.944375l41.99999996 84.00000001H416.47999999l42.00000002-84.00000001zM375.77562497 797.99999998h272.44875006a34.80000001 34.80000001 0 0 0 31.15125011-50.40000002l-61.92000012-123.74437496C608.335625 605.5687499000001 589.61562498 594.00000001 569.16874996 594.00000001H454.83218749c-20.44781249 0-39.1687499 11.51999999-48.28781246 29.85562499l-61.92000002 123.79218751A34.80000001 34.80000001 0 0 0 375.77562497 797.99999998z m-78.91125003-581.61562501l109.20000006 305.76000002c7.67999997 21.50343753 28.03125004 35.85562495 50.88000009 35.85562501h110.1599999c22.8 0 43.20000002-14.3521875 50.88000001-35.85562501L727.13562486 216.38437496999995c7.00874998-19.67999997 2.11218749-41.56875001-12.67124985-56.35312499L536.62437501-17.806874979999975a34.80000001 34.80000001 0 0 0-49.24875002 0L309.53562499 160.03124997999998a54.00000012 54.00000012 0 0 0-12.67125005 56.35218763z m57.79125008-16.60874995L512 42.43218751999996l157.34437498 157.3434375L562.88000004 497.99999999H461.11999996L354.65562502 199.77562497999998z"  horiz-adv-x="1024" />

    
    <glyph glyph-name="yirenzheng" unicode="&#58910;" d="M793.54179689 703.91923815c-128.22363282 2.41347649-226.10566406 41.64785162-262.65585929 58.5667971-12.20097657 5.17939453-25.24306655 5.36835938-38.17705084-0.1898439-36.16962892-16.72910166-134.13339849-55.96347655-262.54687504-58.37695305-24.67353527-0.92197266-44.05957035-20.7421875-44.05957038-45.14501956V275.21777340000006l0.84023441-4.79882809c3.0638672-8.46035165 77.51953125-207.26191406 312.3553711-267.56367187 3.84960938-0.84023438 7.37490243-1.27441405 10.84570313-1.27441402 3.49804688 0 6.94072257 0.40693357 11.27900397 1.3825195 205.47158201 52.79150393 291.34248052 212.57578119 312.49160152 259.7273437 2.6296875 5.23300788 3.98583984 11.5505859 3.98583984 18.73564453v377.3496094c0 24.40195306-19.38603518 44.22216797-44.35839849 45.14414064z m16.18681646-422.49374989c0-3.6597657-0.59677737-5.42285156-1.219922-6.67001948-20.11816409-44.79257821-100.78417969-194.86933594-293.61972654-244.43437501-3.74238282-0.78574219-6.23671875-0.73212891-9.02900386-0.10810552-206.90859374 53.14394533-282.93749996 226.26826171-291.5859375 247.63359376V658.77421874c0 9.02900391 7.59111328 16.64824218 16.70185547 17.02792969 133.48300783 2.49521479 235.78417972 43.49091795 273.14824216 60.79042969 5.15214844 2.14189456 10.98105466 2.00654294 15.31933598 0.18984373 37.77011719-17.51660158 139.99130859-58.4859375 273.2844726-60.98027342 9.38144531-0.37968752 16.97343744-7.99804688 16.97343757-17.02792969v-377.34873048h0.02724612zM628.25292971 295.71474612c5.15214844-5.77441407 14.09941408-6.29033212 19.87470704-1.19267578 5.80253906 5.15126953 6.34570314 14.07216797 1.1935547 19.874707-24.94511721 28.14433591-57.23789062 48.019043-92.59541019 58.26884758 41.75683603 20.28076175 70.82226563 62.6607422 70.82226556 112.03593761 0 68.92382812-56.15332032 124.99628907-125.18613277 124.99628903-69.06005862 0-125.24062505-56.07246099-125.24062499-124.99628903 0-49.37519541 29.12080079-91.8087891 70.90400389-112.06318366-70.30722656-20.85117186-125.83740235-80.77324227-137.76767577-155.52685539-1.21992173-7.67285158 3.98583984-14.91328125 11.68681636-16.13320312 0.75849625-0.10810548 1.5178711-0.18984389 2.25000004-0.18984383 6.77900396 0 12.77050781 4.96230473 13.88232429 11.87578139 12.74414077 79.68867189 83.3765625 139.80146482 164.31240234 139.80146479 47.99179683 0 93.86894529-20.66132814 125.8637695-56.75097663z m99.61787108 39.8039062L592.08330084 200.00185562000001c-0.89560547-0.92197266-2.57607428-2.11464848-4.82695318-2.19638685-1.57324219 0.16259761-3.25371092 0.65039058-5.77441405 3.95947264l-64.153125 73.96699226c-5.15126953 5.93789062-14.07128903 6.50742187-19.84746097 1.43701155-5.88339845-5.09765621-6.50742187-14.01767578-1.43701169-19.84746089l63.58271492-73.20849611c6.26396485-8.3504883 14.85878906-13.25830081 26.2195312-14.34374996 10.27617181 0 19.30605469 3.57978508 26.13867184 10.35791025l135.81474611 135.54492182c5.47734384 5.4755858 5.50458983 14.39648438 0 19.90107421-5.50458983 5.50371094-14.39824219 5.4492187-19.92919923-0.05449222z"  horiz-adv-x="1024" />

    
    <glyph glyph-name="fasong" unicode="&#58911;" d="M689.17338461 51.79990421000002c-4.42933456 0-8.85866919 0-13.28800391 4.42933462L512 158.10393491000002 432.27197691 78.37591189c0-8.85866919-8.85866919-8.85866919-17.71733828-4.42933476S401.26663487 87.23458110000001 401.26663487 96.09325031000003V259.97863093c0 4.42933456 4.42933456 13.28800365 4.42933456 17.7173385l243.6134036 239.1840689c8.85866919 8.85866919 22.14667306 8.85866919 31.00534222-2.1e-7 8.85866919-8.85866919 8.85866919-22.14667306 0-31.00534208L441.13064623 251.11996166999995v-101.87469623l53.15201519 53.15201555c8.85866919 4.42933456 22.14667306 8.85866919 31.00534243 4.4293344l150.59737685-93.01602662 110.73336522 535.94948789-531.52015339-283.47741524 115.16270014-66.44001902c4.42933456-4.42933456 8.85866919-17.71733858 4.4293343-26.5760077-4.42933456-8.85866919-17.71733858-13.28800365-31.00534222-8.85866939L197.51724254 348.56532329000004c-8.85866919 4.42933456-13.28800365 13.28800365-13.28800371 22.14667306s4.42933456 13.28800365 13.28800363 17.71733828L804.33608428 711.77076125c8.85866919 4.42933456 17.71733858 4.42933456 22.14667318 0 8.85866919-4.42933456 8.85866919-13.28800365 8.85866917-22.14667314L711.32005754 73.94657713000004c0-8.85866919-4.42933456-13.28800365-13.28800368-17.71733838 0 0-4.42933456-4.42933456-8.85866925-4.42933454z"  horiz-adv-x="1024" />

    
    <glyph glyph-name="huidaodingbu1" unicode="&#58912;" d="M815.57421875 293.47265625c-5.625 0-11.25 2.109375-15.55664063 6.41601563L524.3046875 575.6015625c-3.33984375 3.33984375-7.64648438 5.09765625-12.3046875 5.09765625-4.65820313 0-9.05273438-1.84570313-12.3046875-5.09765625L223.98242187 299.9765625c-8.61328125-8.61328125-22.5-8.61328125-31.11328124 0-8.61328125 8.61328125-8.61328125 22.5 0 31.11328125l275.71289062 275.71289063c23.90625 23.90625 62.9296875 23.90625 86.8359375-1e-8l275.71289063-275.71289062c8.61328125-8.61328125 8.61328125-22.5-1e-8-31.11328125-4.30664063-4.30664063-9.93164063-6.50390625-15.55664062-6.50390625zM512 12.046875c-12.12890625 0-21.97265625 9.84375-21.97265625 21.97265625v568.65234375c0 12.12890625 9.84375 21.97265625 21.97265625 21.97265625s21.97265625-9.84375 21.97265625-21.97265625v-568.74023438c0-12.04101563-9.84375-21.88476563-21.97265625-21.88476562zM749.21679688 659.9765625H274.78320312c-12.12890625 0-21.97265625 9.84375-21.97265624 21.97265625s9.84375 21.97265625 21.97265625 21.97265625H749.3046875c12.12890625 0 21.97265625-9.84375 21.97265625-21.97265625s-9.93164063-21.97265625-22.06054688-21.97265625z"  horiz-adv-x="1024" />

    
    <glyph glyph-name="mianshianpai" unicode="&#58913;" d="M485.6328125 331.265625c-113.37890625 0-205.6640625 92.28515625-205.6640625 205.6640625S372.25390625 742.59375 485.6328125 742.59375s205.6640625-92.28515625 205.6640625-205.6640625S599.01171875 331.265625 485.6328125 331.265625z m0 353.3203125c-81.73828125 0-147.65625-65.91796875-147.65625-147.65625 0-81.73828125 65.91796875-147.65625 147.65625-147.65625 81.73828125 0 147.65625 65.91796875 147.65625 147.65625 0 81.73828125-65.91796875 147.65625-147.65625 147.65625zM200.8671875 14.859375c-15.8203125 0-29.00390625 13.18359375-29.00390625 29.00390625C171.86328125 223.16015625 319.51953125 370.81640625 498.81640625 370.81640625c55.37109375 0 108.10546875-13.18359375 155.56640625-39.55078125 13.18359375-7.91015625 18.45703125-23.73046875 10.546875-39.55078125-7.91015625-13.18359375-23.73046875-18.45703125-39.55078125-10.546875-39.55078125 21.09375-84.375 31.640625-129.19921875 31.640625-147.65625 0-268.9453125-121.2890625-268.9453125-268.9453125 2.63671875-15.8203125-10.546875-29.00390625-26.3671875-29.00390625zM807.3125 207.33984375H575.28125c-7.91015625 0-13.18359375 5.2734375-13.18359375 13.18359375s5.2734375 13.18359375 13.18359375 13.18359375h232.03125c7.91015625 0 13.18359375-5.2734375 13.18359375-13.18359375s-5.2734375-13.18359375-13.18359375-13.18359375z m0-73.828125H575.28125c-7.91015625 0-13.18359375 5.2734375-13.18359375 13.18359375s5.2734375 13.18359375 13.18359375 13.18359375h232.03125c7.91015625 0 13.18359375-5.2734375 13.18359375-13.18359375 0-5.2734375-5.2734375-13.18359375-13.18359375-13.18359375z m0-71.19140625H575.28125c-7.91015625 0-13.18359375 5.2734375-13.18359375 13.18359375s5.2734375 13.18359375 13.18359375 13.18359375h232.03125c7.91015625 0 13.18359375-5.2734375 13.18359375-13.18359375s-5.2734375-13.18359375-13.18359375-13.18359375z"  horiz-adv-x="1024" />

    
    <glyph glyph-name="fabu" unicode="&#58905;" d="M956.6 762.7l-62.9 62.9c-8.5 8.5-22.6 8.5-31.2-0.2l-61.2-61.2c-8.8-8.8-8.8-22.7-0.2-31.2l62.9-62.9c8.5-8.5 22.6-8.5 31.2 0.2l61.2 61.2c8.8 8.8 8.8 22.7 0.2 31.2z m-578-437.5l-19.7-81c-2.9-11.9 4.4-19.3 16.4-16.4l80.9 19.7c11.9 2.9 14.7 12.2 6.1 20.8l-62.9 62.9c-8.5 8.5-17.9 5.9-20.8-6zM895.8 3.2c0-12.4-10-22.4-22.4-22.4H134.2c-12.4 0-22.4 10-22.4 22.4V742.4c0 12.4 10 22.4 22.4 22.4h515.2l44.8 44.8h-560c-37.1 0-67.2-30.1-67.2-67.2v-739.2c0-37.1 30.1-67.2 67.2-67.2h739.2c37.1 0 67.2 30.1 67.2 67.2V585.6l-44.8-44.8v-537.6zM414.8 346.7l62.9-62.9c8.5-8.5 22.5-8.5 31.2 0.2l339.4 339.4c8.6 8.6 8.7 22.6 0.2 31.2l-62.9 62.9c-8.5 8.5-22.5 8.5-31.2-0.2L415 377.9c-8.7-8.6-8.8-22.6-0.2-31.2z"  horiz-adv-x="1024" />

    
    <glyph glyph-name="wodejianli" unicode="&#58914;" d="M879.495 615.118c0 0.903-0.18 1.626-0.361 2.348l-0.542 2.168s0 0.18-0.181 0.18c-0.18 0.542-0.361 1.265-0.723 1.807 0 0.18-0.18 0.361-0.18 0.542-0.18 0.542-0.542 1.083-0.723 1.445-0.18 0.18-0.18 0.361-0.36 0.722s-0.543 0.903-0.723 1.265c-0.181 0.18-0.362 0.542-0.542 0.722-0.181 0.361-0.542 0.723-0.904 1.084-0.18 0.18-0.36 0.542-0.722 0.722-0.361 0.362-0.542 0.723-0.903 0.904l-0.361 0.36L654.428 830.432c-0.18 0.18-0.361 0.18-0.542 0.361-0.18 0.18-0.542 0.542-0.903 0.723-0.361 0.18-0.542 0.36-0.903 0.722-0.362 0.18-0.542 0.361-0.903 0.542-0.362 0.18-0.542 0.361-0.904 0.542l-1.083 0.542c-0.362 0.18-0.542 0.361-0.904 0.361l-1.083 0.542c-0.362 0.18-0.542 0.18-0.903 0.361s-0.723 0.361-1.265 0.361c-0.361 0-0.542 0.181-0.903 0.181-0.361 0.18-0.723 0.18-1.084 0.361-0.361 0-0.722 0.181-1.084 0.181-0.36 0-0.722 0.18-0.903 0.18-0.722 0-1.445 0.181-2.167 0.181H265.528c-66.833 0-121.023-54.37-121.023-121.023v-662.917c0-66.834 54.37-121.024 121.023-121.024h493.124c66.834 0 121.023 54.37 121.023 121.024V612.77c0 0.722-0.18 1.625-0.18 2.348zM661.653 762.333l137.641-126.984H737.7c-41.906 0-75.865 34.14-75.865 75.865v51.119z m96.819-785.747H265.528c-41.906 0-75.865 34.139-75.865 75.865V715.368c0 41.907 34.14 75.866 75.865 75.866h350.967v-80.02c0-66.834 54.37-121.023 121.023-121.023h97v-537.56c0-41.906-34.14-76.045-76.046-76.045zM704.463 143.128H317.91c-11.199 0-24.024-6.864-24.024-20.411 0-11.38 9.935-20.412 24.024-20.412h392.513c15.895 0 18.243 7.587 18.243 20.412-0.18 12.463-5.238 20.41-24.204 20.41z m0 140.892H404.615c-11.2 0-24.024-6.864-24.024-20.41 0-11.38 9.934-20.412 24.024-20.412h305.809c15.895 0 18.243 7.586 18.243 20.411-0.18 12.464-5.238 20.411-24.204 20.411z m0 133.668H549.12c-11.2 0-24.024-6.864-24.024-20.412 0-11.38 9.935-20.41 24.024-20.41h161.304c15.895 0 18.243 7.586 18.243 20.41-0.18 12.464-5.238 20.412-24.204 20.412z m-366.32 38.655h96.637c23.663 0 44.797 13.367 55.093 34.681 10.115 20.953 7.586 45.339-6.864 63.582-10.296 13.006-22.94 23.663-37.21 31.43 11.74 13.728 18.785 31.43 18.785 50.758 0 43.17-35.042 78.213-78.213 78.213s-78.214-35.042-78.214-78.213c0-19.328 7.045-37.21 18.786-50.758-13.547-7.586-25.83-17.52-35.946-29.984-15.173-18.425-18.243-43.352-7.947-64.847 10.296-21.495 31.43-34.862 55.092-34.862z m48.408 215.313c19.147 0 34.862-15.715 34.862-34.862 0-19.147-15.715-34.862-34.862-34.862s-34.861 15.715-34.861 34.862c0 19.147 15.534 34.862 34.861 34.862z m-61.956-143.241c15.173 18.605 37.752 29.262 61.776 29.262 24.566 0 47.325-11.018 62.679-30.346 5.78-7.406 3.251-14.812 1.806-17.702-1.084-2.348-5.78-10.115-16.076-10.115h-96.638c-9.935 0-14.45 7.044-15.895 9.935-1.084 2.528-4.155 11.018 2.348 18.966z"  horiz-adv-x="1024" />

    
    <glyph glyph-name="nan" unicode="&#58915;" d="M512 790.7c-220.7 0-399.7-179-399.7-399.7s179-399.7 399.7-399.7 399.7 179 399.7 399.7-179 399.7-399.7 399.7z m241.6-270.8h-0.5v-175.4h-99.8v90.1l-46.6-49.7c13.7-27.1 21.4-57.6 21.4-90 0-110.4-89.5-200-199.9-200s-199.9 89.5-199.9 200 89.5 200 199.9 200c36.1 0 70.1-9.6 99.3-26.4l48.3 51.4h-97.5v99.7h275.3v-99.7zM428 394.5c-55.1 0-99.7-44.8-99.7-100s44.6-100 99.7-100 99.7 44.8 99.7 100-44.7 100-99.7 100z"  horiz-adv-x="1024" />

    
    <glyph glyph-name="nv" unicode="&#58916;" d="M512 790.5c-220.6 0-399.5-178.9-399.5-399.5S291.4-8.5 512-8.5 911.5 170.4 911.5 391 732.6 790.5 512 790.5z m200-621.9H561.5v-75.1h-99.1v75.1H312V268.7h150.4v6.2c-33.6 8.6-65.5 25.9-91.8 52.2-78 78-78 204.5 0 282.5s204.5 78 282.5 0 78-204.5 0-282.5c-26.3-26.3-58.1-43.7-91.7-52.2v-6.2h150.4v-100.1h0.2zM582.4 539.9c-39.1 39.1-102.5 39.1-141.6 0-39.1-39.1-39.1-102.4 0-141.5 39.1-39.1 102.5-39.1 141.6 0 39.1 39 39.1 102.4 0 141.5z"  horiz-adv-x="1024" />

    
    <glyph glyph-name="shangchuan" unicode="&#58917;" d="M544 160a32 32 0 0 0-64 0V608a32 32 0 0 0 64 0zM800 64V224a32 32 0 0 0 64 0v-192a32 32 0 0 0-32-32H192a32 32 0 0 0-32 32V224a32 32 0 0 0 64 0v-160zM496 624.64l-152.32-166.4a32 32 0 1 0-47.36 43.52l176 192a32 32 0 0 0 47.36 0l176-192a32 32 0 0 0-47.36-43.52z"  horiz-adv-x="1024" />

    
    <glyph glyph-name="xiazai" unicode="&#58918;" d="M512 110.933c-8.738 0-17.476 3.345-24.166 9.967L146.5 462.234c-9.762 9.83-12.697 24.44-7.373 37.205 5.257 12.766 17.75 21.094 31.54 21.094h170.666v307.2c0 18.842 15.292 34.134 34.134 34.134h273.066c18.842 0 34.134-15.292 34.134-34.134v-307.2h170.666c13.79 0 26.283-8.328 31.54-21.094s2.32-27.443-7.373-37.205L536.166 120.9c-6.69-6.622-15.428-9.967-24.166-9.967zM253.065 452.267L512 193.33l258.935 258.936H648.533c-18.841 0-34.133 15.291-34.133 34.133V793.6H409.6v-307.2c0-18.842-15.292-34.133-34.133-34.133H253.065z m736.802-546.134H34.133C15.292-93.867 0-78.575 0-59.733S15.292-25.6 34.133-25.6h955.734c18.841 0 34.133-15.292 34.133-34.133s-15.292-34.134-34.133-34.134z"  horiz-adv-x="1024" />

    
    <glyph glyph-name="remen" unicode="&#58919;" d="M596.2 62.6c-26.5 14.8-48.3 35.1-63.2 58.7-14.1 23-21.3 48.9-21 75.2 0 30.9 10.3 60.9 29.5 86.5 15.7 19.7 36.5 36.5 60.5 48.7 30 15.5 54.1 38 69.7 65 12.6 21.7 16.2 44.9 19.4 65.3 0 0 1.2 4.9 2.3 6.3 62.9 118.9 225.8 37.4 225.8-264.3 0-16.4-2.6-32.9-7.1-48.5-11.8-39.7-38.5-75.8-75.2-102-121.3-117.9-240.6 17.7-240.7 9.1zM415 179.5c59.3-71.5 149-179.4 236-222 5.1-2.9 39-21.5 76.9-21.5 14.8 0 30.2 2.8 44.7 10.5l4.2 2.6c81.7 57.1 141.2 137.1 167.6 225.6 9.9 34.5 15.1 70 15.4 106-0.2 97-39.1 191.9-109.7 267.4-23.7 25-49.5 35.6-76.8 31.3-19.7-3.1-36.4-13.8-48.6-26.8-6.8 28.3-16.9 55.8-30.3 82.3-2 5.2-4.7 10.1-7.9 14.8C649 719.4 589.7 778 513.4 820.3c-21.5 10.7-54.3 16.7-79.3 6-29.3-12.6-44.1-50.8-46.8-67.4l-0.7-4c-5.3-33.8-10.3-65.6-26.3-93.1-20.8-36-53-65.9-93-86.6-53.1-27.1-99.7-64.7-135.4-109.5C87.5 406.6 64 338 64 267.9c-0.9-59.7 15.8-119.1 48.2-172.2 35.1-55.8 86.6-102.9 147.6-135.3 28.6-16.8 65.2-16.6 93.1 0.4 29.2 17.8 28.6 54.1 25.1 116.9-0.5 9.2-1 17.2-1.1 24.2-1.7 40.4 6.7 79 15.6 104.5 7.2-8.5 15.1-18 22.5-26.9z m-67.7 107.2c-32-30.2-55.6-114.4-52.5-186.3 0-6.5 0.5-15.9 1.1-26.5 0.6-10.9 1.8-31.7 1.5-47-47.6 26.5-86.8 63-113.5 105.4-25.3 41.3-38.3 87.9-37.7 135.1 0 55.5 18.5 109.5 53 155.3 28.1 35.4 65.7 65.5 108.7 87.5C361.7 538 405 578.4 433.1 627c22.6 38.9 29.1 80.6 34.9 117.4 0 0 2.1 8.8 4.1 11.4 61.9-34.4 110.9-83 141.7-140.6l5.2-9.8c14.6-28.5 24.5-58.6 29.5-88.5 2.2-15.6 3.4-31.4 3.5-46.8 0-5-0.9-12.3-1.7-18.9-1.9-16.5-2.8-37.4 10.1-49.6 8.4-9.4 30-10.3 30-10.3 46.3 0 92.9 106.9 93.5 108.3 0.3 0.7 0.8 1.4 1.4 2.3 0.7-0.7 1.5-1.5 2.3-2.4 57.9-61.8 89.9-139.6 90-218.5-0.3-29.5-4.6-59-12.7-87.2-21.3-71.3-69.2-136.2-135-183.3-5.9-1-23 3.2-37.5 11.3-73.8 36.2-156.9 136.3-211.9 202.5-50.3 60.5-65.4 78.7-93.7 78.7-10 0.2-25.1-2.6-39.5-16.3z"  horiz-adv-x="1024" />

    


  </font>
</defs>
</svg>
